<svg viewBox="383.44 309.4665 560.7168 236.9578" width="5000" height="2112.9900156371273" xmlns="http://www.w3.org/2000/svg" xmlns:xlink="http://www.w3.org/1999/xlink" preserveAspectRatio="none"><defs></defs><style>.aD6z1nYkhcolor {fill:#FFFFFF;fill-opacity:1;}.aD6z1nYkhstrokeColor-str {stroke:#D9D9D9;stroke-opacity:1;}.aopBucp0zqcolor {fill:#FFFFFF;fill-opacity:1;}.aopBucp0zqstrokeColor-str {stroke:#D9D9D9;stroke-opacity:1;}.aV70-fYoxocolors-0 {fill:#FFFFFF;fill-opacity:1;}.aV70-fYoxocolors-1 {fill:#D9D9D9;fill-opacity:1;}.aV70-fYoxocolors-2 {fill:#B4B4B4;fill-opacity:1;}.aV70-fYoxocolors-3 {fill:#A6A6A6;fill-opacity:1;}.aV70-fYoxocolors-4 {fill:#949494;fill-opacity:1;}.aV70-fYoxocolors-5 {fill:#848383;fill-opacity:1;}.aV70-fYoxocolors-6 {fill:#717171;fill-opacity:1;}.aV70-fYoxocolors-7 {fill:#636363;fill-opacity:1;}</style><g opacity="1" transform="rotate(0 552.5644 309.4665)">
    <svg width="314.5269" height="183.0859" x="552.5644" y="309.4665" version="1.1" preserveAspectRatio="none" viewBox="2.4 -31.24 54.08 31.48">
        <g transform="matrix(1 0 0 1 0 0)" class="aD6z1nYkhcolor"><path id="id-D6z1nYkh3" d="M12.68-22.08Q15.24-22.08 17.36-21.08Q19.48-20.08 21.04-18.12L21.04-18.12Q21.32-17.72 21.32-17.44L21.32-17.44Q21.32-16.88 20.76-16.56L20.76-16.56Q20.48-16.32 20.12-16.32L20.12-16.32Q19.56-16.32 19.20-16.80L19.20-16.80Q16.64-19.84 12.68-19.84L12.68-19.84Q10.36-19.84 8.56-18.70Q6.76-17.56 5.78-15.52Q4.80-13.48 4.80-10.92L4.80-10.92Q4.80-8.40 5.88-6.36Q6.96-4.32 8.88-3.16Q10.80-2 13.28-2L13.28-2Q16.80-2 18.92-3.96L18.92-3.96Q19.28-4.32 19.76-4.32L19.76-4.32Q20.20-4.32 20.48-4.04L20.48-4.04Q20.88-3.68 20.88-3.16L20.88-3.16Q20.88-2.72 20.56-2.44L20.56-2.44Q19.16-1.16 17.28-0.46Q15.40 0.24 13.28 0.24L13.28 0.24Q10.20 0.24 7.72-1.22Q5.24-2.68 3.82-5.24Q2.40-7.80 2.40-10.92L2.40-10.92Q2.40-14.08 3.72-16.62Q5.04-19.16 7.40-20.62Q9.76-22.08 12.68-22.08L12.68-22.08Z M24.52-30.04Q24.52-30.60 24.86-30.92Q25.20-31.24 25.72-31.24L25.72-31.24Q26.28-31.24 26.60-30.92Q26.92-30.60 26.92-30.04L26.92-30.04L26.92-6.60Q26.92-4.76 27.70-3.58Q28.48-2.40 29.72-2.40L29.72-2.40L30.72-2.40Q31.16-2.40 31.44-2.08Q31.72-1.76 31.72-1.20L31.72-1.20Q31.72-0.68 31.40-0.34Q31.08 0 30.52 0L30.52 0L29.72 0Q27.44 0 25.98-1.84Q24.52-3.68 24.52-6.60L24.52-6.60L24.52-30.04Z M35.32-31.24Q34.76-31.24 34.44-30.92Q34.12-30.60 34.12-30.04L34.12-30.04L34.12-10.80L34.12-10.72Q34.16-7.64 35.64-5.12Q37.12-2.60 39.66-1.18Q42.20 0.24 45.28 0.24L45.28 0.24Q48.44 0.24 51-1.22Q53.56-2.68 55.02-5.24Q56.48-7.80 56.48-10.96L56.48-10.96Q56.48-14.08 55.02-16.64Q53.56-19.20 51-20.66Q48.44-22.12 45.28-22.12L45.28-22.12Q42.44-22.12 40.14-20.90Q37.84-19.68 36.52-17.56L36.52-17.56L36.52-30.04Q36.52-30.60 36.18-30.92Q35.84-31.24 35.32-31.24L35.32-31.24ZM45.28-2Q42.80-2 40.80-3.18Q38.80-4.36 37.66-6.40Q36.52-8.44 36.52-10.96L36.52-10.96Q36.52-13.48 37.66-15.52Q38.80-17.56 40.80-18.72Q42.80-19.88 45.28-19.88L45.28-19.88Q47.76-19.88 49.76-18.72Q51.76-17.56 52.92-15.52Q54.08-13.48 54.08-10.96L54.08-10.96Q54.08-8.44 52.92-6.40Q51.76-4.36 49.76-3.18Q47.76-2 45.28-2L45.28-2Z"/></g>
    </svg>
</g><g opacity="1" transform="rotate(0 424.3715 377)">
    <svg width="99.257" height="100" x="424.3715" y="377" version="1.1" preserveAspectRatio="none" viewBox="2.25 2.2834725379943848 19.466562271118164 19.612260818481445">
        <g transform="matrix(1 0 0 1 0 0)" class="aV70-fYoxocolors-0"><path d="M6.54558792,9.84755702 L6.54558792,5.5519691 L2.25,5.5519691 L2.25,9.84755702 L6.54558792,9.84755702 Z M2.25,15.8715292 L6.54558792,15.8715292 L6.54558792,11.5759412 L2.25,11.5759412 L2.25,15.8715292 Z M6.54558792,21.8957323 L6.54558792,17.6001451 L2.25,17.6001451 L2.25,21.8957323 L6.54558792,21.8957323 Z M12.5695601,15.8715292 L12.5695601,11.5759412 L8.27397215,11.5759412 L8.27397215,15.8715292 L12.5695601,15.8715292 Z M12.5695601,21.8957323 L12.5695601,17.6001451 L8.27397215,17.6001451 L8.27397215,21.8957323 L12.5695601,21.8957323 Z M18.592837,21.8957323 L18.592837,17.6001451 L14.298176,17.6001451 L14.298176,21.8957323 L18.592837,21.8957323 Z M10.9865638,9.08677186 L14.9345078,7.39216568 L13.2399269,3.44511086 L9.29279238,5.13971704 L10.9865638,9.08677186 Z M19.8458253,15.3873822 L21.2947262,11.3440344 L17.2513784,9.89513345 L15.8024775,13.9384813 L19.8458253,15.3873822 Z M17.4655654,7.15389605 L21.7165629,6.5344294 L21.0971022,2.28347255 L16.8461047,2.90356191 L17.4655654,7.15389605 Z"></path></g>
    </svg>
</g><g opacity="1" transform="rotate(0 383.44 515.64)">

</g></svg>